<svg id="Layer_1" data-name="Layer 1" xmlns="http://www.w3.org/2000/svg" width="35.76" height="45.01" viewBox="0 0 35.76 45.01"><defs><style>.cls-1{fill:#fff;}</style></defs><title>icon-2</title><path class="cls-1" d="M17.91,45h-.06a.87.87,0,0,1-.37-.08C-.4,36.51-.07,27.6,0,26.67V8.22a.88.88,0,0,1,.88-.88C14.17,7.35,17,.62,17,.55A.88.88,0,0,1,17.85,0a1,1,0,0,1,.88.55c.11.27,3,6.79,16.14,6.79a.88.88,0,0,1,.88.88V26.67c.09.94.42,9.84-17.46,18.26A.87.87,0,0,1,17.91,45Zm0-.88h0ZM1.77,9.09V26.72a.82.82,0,0,1,0,.11c0,.07-.72,8.31,16.12,16.35C34.72,35.14,34,26.9,34,26.82a1,1,0,0,1,0-.11V9.09C23.74,8.87,19.45,4.75,17.88,2.55,16.31,4.75,12,8.87,1.77,9.09Z"/><path class="cls-1" d="M11.79,31.47V29.85l2.07-2c5-4.74,7.23-7.26,7.26-10.2,0-2-1-3.81-3.87-3.81a6.64,6.64,0,0,0-4.14,1.65l-.84-1.86a8.55,8.55,0,0,1,5.52-2c4.2,0,6,2.88,6,5.67,0,3.6-2.61,6.51-6.72,10.47l-1.56,1.44v.06h8.76v2.19Z"/></svg>