<svg id="Layer_1" data-name="Layer 1" xmlns="http://www.w3.org/2000/svg" width="52.26" height="42.11" viewBox="0 0 52.26 42.11"><defs><style>.cls-1{fill:#fff;}</style></defs><title>icon-1</title><path class="cls-1" d="M52.26,42.11H0V0H52.26Zm-48.34-2H48.34l-6.94-5.4H33.51v-2h7.23V12.58H33v-2H41.3L42.7,9H32.33V13.5a2.07,2.07,0,0,1-2,2.07v1.25L28.11,19.4h-.17l-.27,2.05H24.22L24,19.4h-.17l-2.24-2.58V15.57a2.07,2.07,0,0,1-2-2.07V9h-10L11,10.58h8v2H11.52V32.71h6.9v2H10.86Zm38.83-6.89,7.52,5.84V3.61L42.74,12ZM2,3.61V39.06l7.52-5.84V12ZM26.18,17.4h1l1.15-1.33v-.5H23.54v.5l1.15,1.33ZM21.63,6.12l-.07,7.38,8.69.07.07-7.38-.07-.07ZM3.24,2l6,6.68V7H19.57V6.19a2.07,2.07,0,0,1,2.07-2.07h8.63a2.07,2.07,0,0,1,2.07,2.07V7H43V8.68L49,2Zm22.7,37.15-6.79-2.68v-8.1l5.78-2.28v-4.3h2v4.3l5.79,2.29v8.1Zm-4.79-4L25,36.61V32l-3.79-1.5ZM27,32v4.59l3.78-1.49V30.53Zm-4.07-3L26,30.27,29,29.06l-3.07-1.21Z"/></svg>