<svg id="Layer_1" data-name="Layer 1" xmlns="http://www.w3.org/2000/svg" width="48" height="37.97" viewBox="0 0 48 37.97"><defs><style>.cls-1{fill:#fff;}</style></defs><title>icon-3</title><path class="cls-1" d="M25.54,14.4h-19a.87.87,0,1,1,0-1.74h19a.87.87,0,0,1,0,1.74Z"/><path class="cls-1" d="M23.92,19H6.49a.87.87,0,0,1,0-1.74H23.92a.87.87,0,0,1,0,1.74Z"/><path class="cls-1" d="M24.09,23.51H6.49a.87.87,0,0,1,0-1.74h17.6a.87.87,0,1,1,0,1.74Z"/><path class="cls-1" d="M22.45,30.71H3a3,3,0,0,1-3-3V3A3,3,0,0,1,3,0H37.55a3,3,0,0,1,3,3V9.64H38.77V3a1.22,1.22,0,0,0-1.22-1.22H3A1.22,1.22,0,0,0,1.74,3V27.74A1.22,1.22,0,0,0,3,29H22.45Z"/><path class="cls-1" d="M27.18,7.82H13.28a.87.87,0,1,1,0-1.74h13.9a.87.87,0,0,1,0,1.74Z"/><path class="cls-1" d="M35.43,12.55a7.14,7.14,0,1,1-7.14,7.14,7.14,7.14,0,0,1,7.14-7.14m0-1.74a8.88,8.88,0,1,0,8.88,8.88,8.88,8.88,0,0,0-8.88-8.88Z"/><path class="cls-1" d="M35.43,16.73a3,3,0,1,1-3,3,3,3,0,0,1,3-3m0-1.74a4.7,4.7,0,1,0,4.7,4.7,4.7,4.7,0,0,0-4.7-4.7Z"/><path class="cls-1" d="M41.32,38a.87.87,0,0,1-.79-.5l-4.4-9.35,1.58-.74,3.36,7.12L41.68,32a.87.87,0,0,1,1.2-.59l2.44,1.09-3.86-8.05L43,23.67l4.88,10.19A.87.87,0,0,1,46.77,35L43.12,33.4l-1,3.91a.87.87,0,0,1-.76.66Z"/><path class="cls-1" d="M29.55,38h-.09a.87.87,0,0,1-.76-.66l-1-3.91L24.09,35A.87.87,0,0,1,23,33.86l4.88-10.19,1.57.75-3.86,8.05L28,31.39a.87.87,0,0,1,1.2.59l.62,2.53,3.36-7.12,1.58.74-4.4,9.35A.87.87,0,0,1,29.55,38Z"/></svg>